<mxfile host="app.diagrams.net" modified="2023-04-26T17:33:50.828Z" agent="Mozilla/5.0 (Macintosh; Intel Mac OS X 10_15_7) AppleWebKit/537.36 (KHTML, like Gecko) Chrome/111.0.0.0 Safari/537.36" etag="K0LD4KqFnBiWZhNYPr_3" compressed="false" version="21.2.1" type="github">
  <diagram name="Page-1" id="zYdKh_WhomsrJ0pVKOLc">
    <mxGraphModel dx="4085" dy="2263" grid="1" gridSize="10" guides="1" tooltips="1" connect="1" arrows="1" fold="1" page="1" pageScale="1" pageWidth="850" pageHeight="1100" math="0" shadow="0">
      <root>
        <mxCell id="0" />
        <mxCell id="1" parent="0" />
        <mxCell id="xrwJvCJ6AqcdNxCiseaK-83" style="edgeStyle=orthogonalEdgeStyle;rounded=0;orthogonalLoop=1;jettySize=auto;html=1;entryX=0.5;entryY=0;entryDx=0;entryDy=0;" edge="1" parent="1" source="rc8IcvqTiUcz9mYL3Jec-1" target="xrwJvCJ6AqcdNxCiseaK-47">
          <mxGeometry relative="1" as="geometry">
            <Array as="points">
              <mxPoint x="-1697" y="430" />
              <mxPoint x="-1650" y="430" />
            </Array>
          </mxGeometry>
        </mxCell>
        <mxCell id="xrwJvCJ6AqcdNxCiseaK-94" style="edgeStyle=orthogonalEdgeStyle;rounded=0;orthogonalLoop=1;jettySize=auto;html=1;entryX=0;entryY=0.5;entryDx=0;entryDy=0;" edge="1" parent="1" source="rc8IcvqTiUcz9mYL3Jec-1" target="Nf7-oAOZD7IBiFHSosRC-8">
          <mxGeometry relative="1" as="geometry">
            <Array as="points">
              <mxPoint x="-1610" y="385" />
              <mxPoint x="-1610" y="420" />
              <mxPoint x="-1520" y="420" />
              <mxPoint x="-1520" y="465" />
              <mxPoint x="-1500" y="465" />
              <mxPoint x="-1500" y="530" />
            </Array>
          </mxGeometry>
        </mxCell>
        <mxCell id="rc8IcvqTiUcz9mYL3Jec-1" value="GPT3" style="rounded=1;whiteSpace=wrap;html=1;fillColor=#d5e8d4;strokeColor=#82b366;gradientColor=#97d077;fontStyle=1" parent="1" vertex="1">
          <mxGeometry x="-1720" y="372.5" width="45" height="25" as="geometry" />
        </mxCell>
        <mxCell id="xrwJvCJ6AqcdNxCiseaK-78" style="edgeStyle=orthogonalEdgeStyle;rounded=0;orthogonalLoop=1;jettySize=auto;html=1;entryX=0.5;entryY=0;entryDx=0;entryDy=0;" edge="1" parent="1" source="rc8IcvqTiUcz9mYL3Jec-7" target="rc8IcvqTiUcz9mYL3Jec-1">
          <mxGeometry relative="1" as="geometry">
            <Array as="points">
              <mxPoint x="-1560" y="330" />
              <mxPoint x="-1697" y="330" />
            </Array>
          </mxGeometry>
        </mxCell>
        <mxCell id="xrwJvCJ6AqcdNxCiseaK-79" style="edgeStyle=orthogonalEdgeStyle;rounded=0;orthogonalLoop=1;jettySize=auto;html=1;entryX=0.5;entryY=0;entryDx=0;entryDy=0;" edge="1" parent="1" source="rc8IcvqTiUcz9mYL3Jec-7" target="Nf7-oAOZD7IBiFHSosRC-17">
          <mxGeometry relative="1" as="geometry">
            <Array as="points">
              <mxPoint x="-1560" y="330" />
              <mxPoint x="-1535" y="330" />
            </Array>
          </mxGeometry>
        </mxCell>
        <mxCell id="xrwJvCJ6AqcdNxCiseaK-106" style="edgeStyle=orthogonalEdgeStyle;rounded=0;orthogonalLoop=1;jettySize=auto;html=1;entryX=0.5;entryY=0;entryDx=0;entryDy=0;" edge="1" parent="1" source="rc8IcvqTiUcz9mYL3Jec-7" target="g8Lvn-XysmZS2MQQVdfu-2">
          <mxGeometry relative="1" as="geometry">
            <Array as="points">
              <mxPoint x="-1560" y="330" />
              <mxPoint x="-1920" y="330" />
            </Array>
          </mxGeometry>
        </mxCell>
        <mxCell id="rc8IcvqTiUcz9mYL3Jec-7" value="text2text model" style="rounded=1;whiteSpace=wrap;html=1;" parent="1" vertex="1">
          <mxGeometry x="-1610" y="210" width="100" height="20" as="geometry" />
        </mxCell>
        <mxCell id="xrwJvCJ6AqcdNxCiseaK-129" style="edgeStyle=orthogonalEdgeStyle;rounded=0;orthogonalLoop=1;jettySize=auto;html=1;entryX=0.5;entryY=1;entryDx=0;entryDy=0;" edge="1" parent="1" source="rc8IcvqTiUcz9mYL3Jec-10" target="rc8IcvqTiUcz9mYL3Jec-7">
          <mxGeometry relative="1" as="geometry">
            <mxPoint x="-1560" y="240" as="targetPoint" />
            <Array as="points">
              <mxPoint x="-1270" y="330" />
              <mxPoint x="-1560" y="330" />
            </Array>
          </mxGeometry>
        </mxCell>
        <mxCell id="xrwJvCJ6AqcdNxCiseaK-159" value="by" style="edgeStyle=orthogonalEdgeStyle;rounded=0;orthogonalLoop=1;jettySize=auto;html=1;entryX=0.5;entryY=0;entryDx=0;entryDy=0;" edge="1" parent="1" source="rc8IcvqTiUcz9mYL3Jec-10" target="rc8IcvqTiUcz9mYL3Jec-12">
          <mxGeometry relative="1" as="geometry" />
        </mxCell>
        <mxCell id="rc8IcvqTiUcz9mYL3Jec-10" value="Dolly" style="rounded=1;whiteSpace=wrap;html=1;fillColor=#d5e8d4;gradientColor=#97d077;strokeColor=#82b366;" parent="1" vertex="1">
          <mxGeometry x="-1310" y="365" width="80" height="20" as="geometry" />
        </mxCell>
        <mxCell id="rc8IcvqTiUcz9mYL3Jec-12" value="DataBricks" style="rounded=1;whiteSpace=wrap;html=1;fillColor=#fff2cc;strokeColor=#d6b656;" parent="1" vertex="1">
          <mxGeometry x="-1350" y="430" width="80" height="20" as="geometry" />
        </mxCell>
        <mxCell id="Nf7-oAOZD7IBiFHSosRC-1" value="Stanford" style="rounded=1;whiteSpace=wrap;html=1;fillColor=#fff2cc;strokeColor=#d6b656;" parent="1" vertex="1">
          <mxGeometry x="-550" y="475" width="80" height="20" as="geometry" />
        </mxCell>
        <mxCell id="xrwJvCJ6AqcdNxCiseaK-131" style="edgeStyle=orthogonalEdgeStyle;rounded=0;orthogonalLoop=1;jettySize=auto;html=1;entryX=0;entryY=0.5;entryDx=0;entryDy=0;" edge="1" parent="1" source="Nf7-oAOZD7IBiFHSosRC-8" target="xrwJvCJ6AqcdNxCiseaK-63">
          <mxGeometry relative="1" as="geometry">
            <mxPoint x="-390" y="350" as="targetPoint" />
            <Array as="points">
              <mxPoint x="-1450" y="840" />
              <mxPoint x="-430" y="840" />
              <mxPoint x="-430" y="358" />
            </Array>
          </mxGeometry>
        </mxCell>
        <mxCell id="xrwJvCJ6AqcdNxCiseaK-132" value="released" style="edgeLabel;html=1;align=center;verticalAlign=middle;resizable=0;points=[];" vertex="1" connectable="0" parent="xrwJvCJ6AqcdNxCiseaK-131">
          <mxGeometry x="0.8517" y="3" relative="1" as="geometry">
            <mxPoint x="1" y="1" as="offset" />
          </mxGeometry>
        </mxCell>
        <mxCell id="Nf7-oAOZD7IBiFHSosRC-8" value="OpenAI" style="rounded=1;whiteSpace=wrap;html=1;fillColor=#fff2cc;strokeColor=#d6b656;" parent="1" vertex="1">
          <mxGeometry x="-1490" y="520" width="80" height="20" as="geometry" />
        </mxCell>
        <mxCell id="Nf7-oAOZD7IBiFHSosRC-10" value="DALL-E 2" style="rounded=1;whiteSpace=wrap;html=1;fillColor=#ffcccc;strokeColor=#36393d;" parent="1" vertex="1">
          <mxGeometry x="-364" y="430" width="80" height="20" as="geometry" />
        </mxCell>
        <mxCell id="xrwJvCJ6AqcdNxCiseaK-70" value="is director" style="edgeStyle=orthogonalEdgeStyle;rounded=0;orthogonalLoop=1;jettySize=auto;html=1;entryX=0.5;entryY=0;entryDx=0;entryDy=0;" edge="1" parent="1" source="Nf7-oAOZD7IBiFHSosRC-12" target="Nf7-oAOZD7IBiFHSosRC-13">
          <mxGeometry relative="1" as="geometry" />
        </mxCell>
        <mxCell id="xrwJvCJ6AqcdNxCiseaK-116" style="edgeStyle=orthogonalEdgeStyle;rounded=0;orthogonalLoop=1;jettySize=auto;html=1;entryX=0.5;entryY=0;entryDx=0;entryDy=0;" edge="1" parent="1" source="Nf7-oAOZD7IBiFHSosRC-12" target="pncwD2yv2-toFsTXnSwA-19">
          <mxGeometry relative="1" as="geometry">
            <Array as="points">
              <mxPoint x="-1845" y="630" />
              <mxPoint x="-1785" y="630" />
            </Array>
          </mxGeometry>
        </mxCell>
        <mxCell id="Nf7-oAOZD7IBiFHSosRC-12" value="EleutherAI" style="rounded=1;whiteSpace=wrap;html=1;fillColor=#fff2cc;strokeColor=#d6b656;" parent="1" vertex="1">
          <mxGeometry x="-1885" y="500" width="80" height="20" as="geometry" />
        </mxCell>
        <mxCell id="Nf7-oAOZD7IBiFHSosRC-13" value="Stella Biderman" style="rounded=1;whiteSpace=wrap;html=1;fillColor=#ffff88;strokeColor=#36393d;" parent="1" vertex="1">
          <mxGeometry x="-1805" y="590" width="90" height="20" as="geometry" />
        </mxCell>
        <mxCell id="Nf7-oAOZD7IBiFHSosRC-62" value="" style="edgeStyle=orthogonalEdgeStyle;rounded=0;orthogonalLoop=1;jettySize=auto;html=1;" parent="1" source="Nf7-oAOZD7IBiFHSosRC-16" target="Nf7-oAOZD7IBiFHSosRC-15" edge="1">
          <mxGeometry relative="1" as="geometry" />
        </mxCell>
        <mxCell id="Nf7-oAOZD7IBiFHSosRC-114" value="by" style="edgeLabel;html=1;align=center;verticalAlign=middle;resizable=0;points=[];" parent="Nf7-oAOZD7IBiFHSosRC-62" connectable="0" vertex="1">
          <mxGeometry x="0.4353" relative="1" as="geometry">
            <mxPoint y="-8" as="offset" />
          </mxGeometry>
        </mxCell>
        <mxCell id="Nf7-oAOZD7IBiFHSosRC-15" value="&amp;nbsp;Berkeley AI Research Institute" style="rounded=1;whiteSpace=wrap;html=1;fillColor=#fff2cc;strokeColor=#d6b656;" parent="1" vertex="1">
          <mxGeometry x="-1200" y="555" width="110" height="30" as="geometry" />
        </mxCell>
        <mxCell id="Nf7-oAOZD7IBiFHSosRC-16" value="Koala" style="rounded=1;whiteSpace=wrap;html=1;fillColor=#f8cecc;strokeColor=#b85450;" parent="1" vertex="1">
          <mxGeometry x="-1185" y="499" width="80" height="20" as="geometry" />
        </mxCell>
        <mxCell id="xrwJvCJ6AqcdNxCiseaK-166" value="by" style="edgeStyle=orthogonalEdgeStyle;rounded=0;orthogonalLoop=1;jettySize=auto;html=1;entryX=0.5;entryY=0;entryDx=0;entryDy=0;" edge="1" parent="1" source="Nf7-oAOZD7IBiFHSosRC-20" target="Nf7-oAOZD7IBiFHSosRC-21">
          <mxGeometry relative="1" as="geometry" />
        </mxCell>
        <mxCell id="Nf7-oAOZD7IBiFHSosRC-20" value="ColossalAI" style="rounded=1;whiteSpace=wrap;html=1;fillColor=#ffcccc;strokeColor=#36393d;" parent="1" vertex="1">
          <mxGeometry x="-1030" y="641" width="80" height="20" as="geometry" />
        </mxCell>
        <mxCell id="Nf7-oAOZD7IBiFHSosRC-21" value="UC Berkeley" style="rounded=1;whiteSpace=wrap;html=1;fillColor=#fff2cc;strokeColor=#d6b656;" parent="1" vertex="1">
          <mxGeometry x="-910" y="661" width="80" height="20" as="geometry" />
        </mxCell>
        <mxCell id="xrwJvCJ6AqcdNxCiseaK-109" value="used by" style="edgeStyle=orthogonalEdgeStyle;rounded=0;orthogonalLoop=1;jettySize=auto;html=1;" edge="1" parent="1" source="Nf7-oAOZD7IBiFHSosRC-24" target="Nf7-oAOZD7IBiFHSosRC-30">
          <mxGeometry relative="1" as="geometry">
            <Array as="points">
              <mxPoint x="-1080" y="400" />
              <mxPoint x="-868" y="400" />
            </Array>
          </mxGeometry>
        </mxCell>
        <mxCell id="xrwJvCJ6AqcdNxCiseaK-111" value="by" style="edgeStyle=orthogonalEdgeStyle;rounded=0;orthogonalLoop=1;jettySize=auto;html=1;entryX=0.5;entryY=0;entryDx=0;entryDy=0;" edge="1" parent="1" source="Nf7-oAOZD7IBiFHSosRC-24" target="Nf7-oAOZD7IBiFHSosRC-25">
          <mxGeometry x="0.2598" y="-10" relative="1" as="geometry">
            <Array as="points">
              <mxPoint x="-1080" y="610" />
              <mxPoint x="-1210" y="610" />
            </Array>
            <mxPoint as="offset" />
          </mxGeometry>
        </mxCell>
        <mxCell id="xrwJvCJ6AqcdNxCiseaK-130" style="edgeStyle=orthogonalEdgeStyle;rounded=0;orthogonalLoop=1;jettySize=auto;html=1;entryX=0.5;entryY=1;entryDx=0;entryDy=0;" edge="1" parent="1" source="Nf7-oAOZD7IBiFHSosRC-24" target="rc8IcvqTiUcz9mYL3Jec-7">
          <mxGeometry relative="1" as="geometry">
            <mxPoint x="-1440" y="280" as="targetPoint" />
            <Array as="points">
              <mxPoint x="-1080" y="330" />
              <mxPoint x="-1560" y="330" />
            </Array>
          </mxGeometry>
        </mxCell>
        <mxCell id="xrwJvCJ6AqcdNxCiseaK-140" value="released" style="edgeStyle=orthogonalEdgeStyle;rounded=0;orthogonalLoop=1;jettySize=auto;html=1;entryX=0.5;entryY=0;entryDx=0;entryDy=0;" edge="1" parent="1" source="Nf7-oAOZD7IBiFHSosRC-24" target="Nf7-oAOZD7IBiFHSosRC-44">
          <mxGeometry relative="1" as="geometry">
            <mxPoint x="-1140" y="460" as="targetPoint" />
            <Array as="points">
              <mxPoint x="-1080" y="400" />
              <mxPoint x="-1220" y="400" />
            </Array>
          </mxGeometry>
        </mxCell>
        <mxCell id="xrwJvCJ6AqcdNxCiseaK-164" style="edgeStyle=orthogonalEdgeStyle;rounded=0;orthogonalLoop=1;jettySize=auto;html=1;entryX=0.5;entryY=0;entryDx=0;entryDy=0;" edge="1" parent="1" source="Nf7-oAOZD7IBiFHSosRC-24" target="Nf7-oAOZD7IBiFHSosRC-20">
          <mxGeometry relative="1" as="geometry">
            <Array as="points">
              <mxPoint x="-1080" y="610" />
              <mxPoint x="-990" y="610" />
            </Array>
          </mxGeometry>
        </mxCell>
        <mxCell id="xrwJvCJ6AqcdNxCiseaK-165" value="used by" style="edgeLabel;html=1;align=center;verticalAlign=middle;resizable=0;points=[];" vertex="1" connectable="0" parent="xrwJvCJ6AqcdNxCiseaK-164">
          <mxGeometry x="0.4048" y="-1" relative="1" as="geometry">
            <mxPoint x="81" y="-4" as="offset" />
          </mxGeometry>
        </mxCell>
        <mxCell id="xrwJvCJ6AqcdNxCiseaK-167" style="edgeStyle=orthogonalEdgeStyle;rounded=0;orthogonalLoop=1;jettySize=auto;html=1;entryX=0;entryY=0.5;entryDx=0;entryDy=0;" edge="1" parent="1" source="Nf7-oAOZD7IBiFHSosRC-24" target="2W1-EBeXB4ZHRV_UkJeY-3">
          <mxGeometry relative="1" as="geometry">
            <Array as="points">
              <mxPoint x="-1080" y="703" />
            </Array>
          </mxGeometry>
        </mxCell>
        <mxCell id="xrwJvCJ6AqcdNxCiseaK-169" value="trained on" style="edgeLabel;html=1;align=center;verticalAlign=middle;resizable=0;points=[];" vertex="1" connectable="0" parent="xrwJvCJ6AqcdNxCiseaK-167">
          <mxGeometry x="0.5654" y="4" relative="1" as="geometry">
            <mxPoint as="offset" />
          </mxGeometry>
        </mxCell>
        <mxCell id="xrwJvCJ6AqcdNxCiseaK-171" style="edgeStyle=orthogonalEdgeStyle;rounded=0;orthogonalLoop=1;jettySize=auto;html=1;" edge="1" parent="1" source="Nf7-oAOZD7IBiFHSosRC-24" target="Nf7-oAOZD7IBiFHSosRC-53">
          <mxGeometry relative="1" as="geometry">
            <Array as="points">
              <mxPoint x="-1080" y="650" />
              <mxPoint x="-1080" y="650" />
            </Array>
          </mxGeometry>
        </mxCell>
        <mxCell id="xrwJvCJ6AqcdNxCiseaK-172" value="weights leaked by" style="edgeLabel;html=1;align=center;verticalAlign=middle;resizable=0;points=[];" vertex="1" connectable="0" parent="xrwJvCJ6AqcdNxCiseaK-171">
          <mxGeometry x="0.8049" relative="1" as="geometry">
            <mxPoint as="offset" />
          </mxGeometry>
        </mxCell>
        <mxCell id="Nf7-oAOZD7IBiFHSosRC-24" value="LLaMA" style="rounded=1;whiteSpace=wrap;html=1;fillColor=#d5e8d4;strokeColor=#82b366;gradientColor=#97d077;" parent="1" vertex="1">
          <mxGeometry x="-1120" y="360" width="80" height="20" as="geometry" />
        </mxCell>
        <mxCell id="Nf7-oAOZD7IBiFHSosRC-28" value="VP of AI" style="edgeStyle=orthogonalEdgeStyle;rounded=0;orthogonalLoop=1;jettySize=auto;html=1;" parent="1" source="Nf7-oAOZD7IBiFHSosRC-27" target="Nf7-oAOZD7IBiFHSosRC-25" edge="1">
          <mxGeometry x="-0.4" y="-1" relative="1" as="geometry">
            <mxPoint as="offset" />
          </mxGeometry>
        </mxCell>
        <mxCell id="xrwJvCJ6AqcdNxCiseaK-112" value="funded" style="edgeStyle=orthogonalEdgeStyle;rounded=0;orthogonalLoop=1;jettySize=auto;html=1;" edge="1" parent="1" source="Nf7-oAOZD7IBiFHSosRC-25" target="Nf7-oAOZD7IBiFHSosRC-40">
          <mxGeometry relative="1" as="geometry" />
        </mxCell>
        <mxCell id="Nf7-oAOZD7IBiFHSosRC-25" value="Meta" style="rounded=1;whiteSpace=wrap;html=1;fillColor=#fff2cc;strokeColor=#d6b656;" parent="1" vertex="1">
          <mxGeometry x="-1250" y="631" width="80" height="20" as="geometry" />
        </mxCell>
        <mxCell id="Nf7-oAOZD7IBiFHSosRC-27" value="Joelle Pineau" style="rounded=1;whiteSpace=wrap;html=1;fillColor=#ffff88;strokeColor=#36393d;" parent="1" vertex="1">
          <mxGeometry x="-1400" y="651" width="80" height="20" as="geometry" />
        </mxCell>
        <mxCell id="xrwJvCJ6AqcdNxCiseaK-110" value="released" style="edgeStyle=orthogonalEdgeStyle;rounded=0;orthogonalLoop=1;jettySize=auto;html=1;exitX=0.5;exitY=1;exitDx=0;exitDy=0;" edge="1" parent="1" source="Nf7-oAOZD7IBiFHSosRC-30" target="pncwD2yv2-toFsTXnSwA-8">
          <mxGeometry relative="1" as="geometry">
            <mxPoint x="-1060" y="458" as="sourcePoint" />
          </mxGeometry>
        </mxCell>
        <mxCell id="Nf7-oAOZD7IBiFHSosRC-30" value="Vicuna" style="rounded=1;whiteSpace=wrap;html=1;fillColor=#f8cecc;strokeColor=#b85450;" parent="1" vertex="1">
          <mxGeometry x="-908" y="455" width="80" height="20" as="geometry" />
        </mxCell>
        <mxCell id="xrwJvCJ6AqcdNxCiseaK-148" style="edgeStyle=orthogonalEdgeStyle;rounded=0;orthogonalLoop=1;jettySize=auto;html=1;entryX=0.5;entryY=0;entryDx=0;entryDy=0;" edge="1" parent="1" source="Nf7-oAOZD7IBiFHSosRC-38" target="pncwD2yv2-toFsTXnSwA-35">
          <mxGeometry relative="1" as="geometry">
            <Array as="points">
              <mxPoint x="550" y="130" />
              <mxPoint x="601" y="130" />
              <mxPoint x="601" y="177" />
            </Array>
          </mxGeometry>
        </mxCell>
        <mxCell id="xrwJvCJ6AqcdNxCiseaK-149" value="examples" style="edgeLabel;html=1;align=center;verticalAlign=middle;resizable=0;points=[];" vertex="1" connectable="0" parent="xrwJvCJ6AqcdNxCiseaK-148">
          <mxGeometry x="0.4313" y="-1" relative="1" as="geometry">
            <mxPoint x="-44" y="-58" as="offset" />
          </mxGeometry>
        </mxCell>
        <mxCell id="xrwJvCJ6AqcdNxCiseaK-182" style="edgeStyle=orthogonalEdgeStyle;rounded=0;orthogonalLoop=1;jettySize=auto;html=1;entryX=0.5;entryY=0;entryDx=0;entryDy=0;" edge="1" parent="1" source="Nf7-oAOZD7IBiFHSosRC-38" target="kC5YvyOTZEcegMEEfZhX-8">
          <mxGeometry relative="1" as="geometry">
            <Array as="points">
              <mxPoint x="550" y="160" />
              <mxPoint x="570" y="160" />
            </Array>
          </mxGeometry>
        </mxCell>
        <mxCell id="xrwJvCJ6AqcdNxCiseaK-183" style="edgeStyle=orthogonalEdgeStyle;rounded=0;orthogonalLoop=1;jettySize=auto;html=1;" edge="1" parent="1" source="Nf7-oAOZD7IBiFHSosRC-38" target="pncwD2yv2-toFsTXnSwA-41">
          <mxGeometry relative="1" as="geometry" />
        </mxCell>
        <mxCell id="Nf7-oAOZD7IBiFHSosRC-38" value="Fine-tune techniques" style="rounded=1;whiteSpace=wrap;html=1;" parent="1" vertex="1">
          <mxGeometry x="500" y="70" width="100" height="30" as="geometry" />
        </mxCell>
        <mxCell id="xrwJvCJ6AqcdNxCiseaK-115" value="is chief" style="edgeStyle=orthogonalEdgeStyle;rounded=0;orthogonalLoop=1;jettySize=auto;html=1;" edge="1" parent="1" source="Nf7-oAOZD7IBiFHSosRC-40" target="Nf7-oAOZD7IBiFHSosRC-42">
          <mxGeometry relative="1" as="geometry" />
        </mxCell>
        <mxCell id="Nf7-oAOZD7IBiFHSosRC-40" value="FAiR" style="rounded=1;whiteSpace=wrap;html=1;fillColor=#fff2cc;strokeColor=#d6b656;" parent="1" vertex="1">
          <mxGeometry x="-1290" y="701" width="80" height="20" as="geometry" />
        </mxCell>
        <mxCell id="Nf7-oAOZD7IBiFHSosRC-42" value="Yann LeCun" style="rounded=1;whiteSpace=wrap;html=1;fillColor=#ffff88;strokeColor=#36393d;" parent="1" vertex="1">
          <mxGeometry x="-1290" y="770" width="80" height="20" as="geometry" />
        </mxCell>
        <mxCell id="xrwJvCJ6AqcdNxCiseaK-142" style="edgeStyle=orthogonalEdgeStyle;rounded=0;orthogonalLoop=1;jettySize=auto;html=1;entryX=0.5;entryY=0;entryDx=0;entryDy=0;" edge="1" parent="1" source="Nf7-oAOZD7IBiFHSosRC-44" target="Nf7-oAOZD7IBiFHSosRC-47">
          <mxGeometry relative="1" as="geometry" />
        </mxCell>
        <mxCell id="xrwJvCJ6AqcdNxCiseaK-143" value="can be run on" style="edgeLabel;html=1;align=center;verticalAlign=middle;resizable=0;points=[];" vertex="1" connectable="0" parent="xrwJvCJ6AqcdNxCiseaK-142">
          <mxGeometry x="0.075" relative="1" as="geometry">
            <mxPoint x="-2" y="-12" as="offset" />
          </mxGeometry>
        </mxCell>
        <mxCell id="xrwJvCJ6AqcdNxCiseaK-177" style="edgeStyle=orthogonalEdgeStyle;rounded=0;orthogonalLoop=1;jettySize=auto;html=1;entryX=0.5;entryY=0;entryDx=0;entryDy=0;" edge="1" parent="1" source="Nf7-oAOZD7IBiFHSosRC-44" target="Nf7-oAOZD7IBiFHSosRC-16">
          <mxGeometry relative="1" as="geometry">
            <Array as="points">
              <mxPoint x="-1160" y="470" />
              <mxPoint x="-1160" y="479" />
              <mxPoint x="-1145" y="479" />
            </Array>
          </mxGeometry>
        </mxCell>
        <mxCell id="xrwJvCJ6AqcdNxCiseaK-179" value="used by" style="edgeLabel;html=1;align=center;verticalAlign=middle;resizable=0;points=[];" vertex="1" connectable="0" parent="xrwJvCJ6AqcdNxCiseaK-177">
          <mxGeometry x="0.125" y="2" relative="1" as="geometry">
            <mxPoint x="13" y="-12" as="offset" />
          </mxGeometry>
        </mxCell>
        <mxCell id="Nf7-oAOZD7IBiFHSosRC-44" value="LLaMA-13b" style="rounded=1;whiteSpace=wrap;html=1;fillColor=#d5e8d4;strokeColor=#82b366;gradientColor=#97d077;" parent="1" vertex="1">
          <mxGeometry x="-1260" y="460" width="80" height="20" as="geometry" />
        </mxCell>
        <mxCell id="Nf7-oAOZD7IBiFHSosRC-47" value="A100 GPU" style="rounded=1;whiteSpace=wrap;html=1;" parent="1" vertex="1">
          <mxGeometry x="-1300" y="530" width="80" height="20" as="geometry" />
        </mxCell>
        <mxCell id="Nf7-oAOZD7IBiFHSosRC-48" value="text2image&lt;br&gt;model" style="rounded=1;whiteSpace=wrap;html=1;fillColor=#f5f5f5;strokeColor=#666666;fontColor=#333333;" parent="1" vertex="1">
          <mxGeometry x="-224" y="259.5" width="80" height="30" as="geometry" />
        </mxCell>
        <mxCell id="Nf7-oAOZD7IBiFHSosRC-51" value="Stable Diffusion" style="rounded=1;whiteSpace=wrap;html=1;fillColor=#ffcccc;strokeColor=#36393d;" parent="1" vertex="1">
          <mxGeometry x="-141" y="441" width="90" height="30" as="geometry" />
        </mxCell>
        <mxCell id="Nf7-oAOZD7IBiFHSosRC-53" value="4Chan" style="rounded=1;whiteSpace=wrap;html=1;fillColor=#fff2cc;strokeColor=#d6b656;" parent="1" vertex="1">
          <mxGeometry x="-1140" y="760" width="80" height="20" as="geometry" />
        </mxCell>
        <mxCell id="Nf7-oAOZD7IBiFHSosRC-73" value="by" style="edgeStyle=orthogonalEdgeStyle;rounded=0;orthogonalLoop=1;jettySize=auto;html=1;" parent="1" source="Nf7-oAOZD7IBiFHSosRC-71" target="Nf7-oAOZD7IBiFHSosRC-1" edge="1">
          <mxGeometry relative="1" as="geometry" />
        </mxCell>
        <mxCell id="xrwJvCJ6AqcdNxCiseaK-161" style="edgeStyle=orthogonalEdgeStyle;rounded=0;orthogonalLoop=1;jettySize=auto;html=1;entryX=0.5;entryY=1;entryDx=0;entryDy=0;" edge="1" parent="1" source="Nf7-oAOZD7IBiFHSosRC-71" target="rc8IcvqTiUcz9mYL3Jec-7">
          <mxGeometry relative="1" as="geometry">
            <Array as="points">
              <mxPoint x="-530" y="330" />
              <mxPoint x="-1560" y="330" />
            </Array>
          </mxGeometry>
        </mxCell>
        <mxCell id="Nf7-oAOZD7IBiFHSosRC-71" value="Alpaca" style="rounded=1;whiteSpace=wrap;html=1;fillColor=#d5e8d4;strokeColor=#82b366;" parent="1" vertex="1">
          <mxGeometry x="-570" y="365" width="80" height="20" as="geometry" />
        </mxCell>
        <mxCell id="xrwJvCJ6AqcdNxCiseaK-54" style="edgeStyle=orthogonalEdgeStyle;rounded=0;orthogonalLoop=1;jettySize=auto;html=1;entryX=1;entryY=0.5;entryDx=0;entryDy=0;" edge="1" parent="1" source="Nf7-oAOZD7IBiFHSosRC-75" target="Nf7-oAOZD7IBiFHSosRC-77">
          <mxGeometry relative="1" as="geometry" />
        </mxCell>
        <mxCell id="xrwJvCJ6AqcdNxCiseaK-122" value="developed by" style="edgeLabel;html=1;align=center;verticalAlign=middle;resizable=0;points=[];" vertex="1" connectable="0" parent="xrwJvCJ6AqcdNxCiseaK-54">
          <mxGeometry relative="1" as="geometry">
            <mxPoint as="offset" />
          </mxGeometry>
        </mxCell>
        <mxCell id="Nf7-oAOZD7IBiFHSosRC-75" value="Transformer architecture" style="rounded=1;whiteSpace=wrap;html=1;fillColor=#f5f5f5;fontColor=#333333;strokeColor=#666666;" parent="1" vertex="1">
          <mxGeometry x="-1130" y="85" width="80" height="30" as="geometry" />
        </mxCell>
        <mxCell id="Nf7-oAOZD7IBiFHSosRC-77" value="Google" style="rounded=1;whiteSpace=wrap;html=1;fillColor=#fff2cc;strokeColor=#d6b656;arcSize=50;" parent="1" vertex="1">
          <mxGeometry x="-1290" y="90" width="60" height="20" as="geometry" />
        </mxCell>
        <mxCell id="xrwJvCJ6AqcdNxCiseaK-151" value="is CEO" style="edgeStyle=orthogonalEdgeStyle;rounded=0;orthogonalLoop=1;jettySize=auto;html=1;" edge="1" parent="1" source="Nf7-oAOZD7IBiFHSosRC-83" target="Nf7-oAOZD7IBiFHSosRC-84">
          <mxGeometry relative="1" as="geometry" />
        </mxCell>
        <mxCell id="Nf7-oAOZD7IBiFHSosRC-83" value="HuggingFace" style="rounded=1;whiteSpace=wrap;html=1;fillColor=#fff2cc;strokeColor=#d6b656;" parent="1" vertex="1">
          <mxGeometry x="-2130" y="580" width="80" height="20" as="geometry" />
        </mxCell>
        <mxCell id="Nf7-oAOZD7IBiFHSosRC-84" value="Clemente&lt;br&gt;Delangue" style="rounded=1;whiteSpace=wrap;html=1;fillColor=#ffff88;strokeColor=#36393d;" parent="1" vertex="1">
          <mxGeometry x="-2130" y="641" width="80" height="30" as="geometry" />
        </mxCell>
        <mxCell id="Nf7-oAOZD7IBiFHSosRC-87" value="LAiON.ai" style="rounded=1;whiteSpace=wrap;html=1;fillColor=#fff2cc;strokeColor=#d6b656;" parent="1" vertex="1">
          <mxGeometry x="-1660" y="665.5" width="80" height="20" as="geometry" />
        </mxCell>
        <mxCell id="xrwJvCJ6AqcdNxCiseaK-96" value="ex-employees" style="edgeStyle=orthogonalEdgeStyle;rounded=0;orthogonalLoop=1;jettySize=auto;html=1;entryX=0.75;entryY=1;entryDx=0;entryDy=0;" edge="1" parent="1" source="Nf7-oAOZD7IBiFHSosRC-145" target="Nf7-oAOZD7IBiFHSosRC-8">
          <mxGeometry x="0.0588" y="10" relative="1" as="geometry">
            <Array as="points">
              <mxPoint x="-1380" y="590" />
              <mxPoint x="-1430" y="590" />
            </Array>
            <mxPoint as="offset" />
          </mxGeometry>
        </mxCell>
        <mxCell id="xrwJvCJ6AqcdNxCiseaK-100" value="released" style="edgeStyle=orthogonalEdgeStyle;rounded=0;orthogonalLoop=1;jettySize=auto;html=1;entryX=0.5;entryY=1;entryDx=0;entryDy=0;" edge="1" parent="1" source="Nf7-oAOZD7IBiFHSosRC-145" target="Nf7-oAOZD7IBiFHSosRC-148">
          <mxGeometry relative="1" as="geometry">
            <Array as="points">
              <mxPoint x="-1380" y="453" />
              <mxPoint x="-1390" y="453" />
            </Array>
          </mxGeometry>
        </mxCell>
        <mxCell id="Nf7-oAOZD7IBiFHSosRC-145" value="Anthropic" style="rounded=1;whiteSpace=wrap;html=1;fillColor=#fff2cc;strokeColor=#d6b656;" parent="1" vertex="1">
          <mxGeometry x="-1400" y="520" width="80" height="20" as="geometry" />
        </mxCell>
        <mxCell id="Nf7-oAOZD7IBiFHSosRC-148" value="Claude" style="rounded=1;whiteSpace=wrap;html=1;fillColor=#d5e8d4;strokeColor=#82b366;gradientColor=#97d077;fontStyle=2" parent="1" vertex="1">
          <mxGeometry x="-1430" y="365" width="80" height="20" as="geometry" />
        </mxCell>
        <mxCell id="xrwJvCJ6AqcdNxCiseaK-123" style="edgeStyle=orthogonalEdgeStyle;rounded=0;orthogonalLoop=1;jettySize=auto;html=1;startArrow=classic;startFill=1;endArrow=none;endFill=0;entryX=1;entryY=0.5;entryDx=0;entryDy=0;" edge="1" parent="1" source="1h3RwcM3t6Gh3h66ZXi_-1" target="Nf7-oAOZD7IBiFHSosRC-48">
          <mxGeometry relative="1" as="geometry">
            <mxPoint x="-190" y="292" as="targetPoint" />
            <Array as="points">
              <mxPoint x="-8" y="322" />
              <mxPoint x="-110" y="322" />
              <mxPoint x="-110" y="275" />
            </Array>
          </mxGeometry>
        </mxCell>
        <mxCell id="xrwJvCJ6AqcdNxCiseaK-124" value="used by" style="edgeLabel;html=1;align=center;verticalAlign=middle;resizable=0;points=[];" vertex="1" connectable="0" parent="xrwJvCJ6AqcdNxCiseaK-123">
          <mxGeometry x="-0.6583" y="4" relative="1" as="geometry">
            <mxPoint as="offset" />
          </mxGeometry>
        </mxCell>
        <mxCell id="1h3RwcM3t6Gh3h66ZXi_-1" value="Midjourney" style="rounded=1;whiteSpace=wrap;html=1;fillColor=#ffcccc;strokeColor=#36393d;" parent="1" vertex="1">
          <mxGeometry x="-34" y="437" width="71" height="30" as="geometry" />
        </mxCell>
        <mxCell id="kC5YvyOTZEcegMEEfZhX-23" style="edgeStyle=orthogonalEdgeStyle;rounded=0;orthogonalLoop=1;jettySize=auto;html=1;entryX=0.5;entryY=0;entryDx=0;entryDy=0;" parent="1" source="kC5YvyOTZEcegMEEfZhX-8" target="kC5YvyOTZEcegMEEfZhX-20" edge="1">
          <mxGeometry relative="1" as="geometry">
            <Array as="points">
              <mxPoint x="570" y="347" />
            </Array>
            <mxPoint x="481" y="813" as="targetPoint" />
          </mxGeometry>
        </mxCell>
        <mxCell id="kC5YvyOTZEcegMEEfZhX-24" value="type of" style="edgeLabel;html=1;align=center;verticalAlign=middle;resizable=0;points=[];" parent="kC5YvyOTZEcegMEEfZhX-23" vertex="1" connectable="0">
          <mxGeometry x="-0.2477" y="3" relative="1" as="geometry">
            <mxPoint y="1" as="offset" />
          </mxGeometry>
        </mxCell>
        <mxCell id="kC5YvyOTZEcegMEEfZhX-8" value="RLHF" style="rounded=1;whiteSpace=wrap;html=1;" parent="1" vertex="1">
          <mxGeometry x="540" y="215" width="60" height="20" as="geometry" />
        </mxCell>
        <mxCell id="kC5YvyOTZEcegMEEfZhX-20" value="Reinforcement&lt;br&gt;Learning" style="rounded=1;whiteSpace=wrap;html=1;" parent="1" vertex="1">
          <mxGeometry x="525" y="365" width="90" height="30" as="geometry" />
        </mxCell>
        <mxCell id="VnbCQmwnc8fAFKmrNmWd-5" value="" style="edgeStyle=orthogonalEdgeStyle;rounded=0;orthogonalLoop=1;jettySize=auto;html=1;" parent="1" source="VnbCQmwnc8fAFKmrNmWd-2" target="VnbCQmwnc8fAFKmrNmWd-4" edge="1">
          <mxGeometry relative="1" as="geometry" />
        </mxCell>
        <mxCell id="VnbCQmwnc8fAFKmrNmWd-6" value="Offers" style="edgeLabel;html=1;align=center;verticalAlign=middle;resizable=0;points=[];" parent="VnbCQmwnc8fAFKmrNmWd-5" vertex="1" connectable="0">
          <mxGeometry x="-0.175" y="1" relative="1" as="geometry">
            <mxPoint as="offset" />
          </mxGeometry>
        </mxCell>
        <mxCell id="VnbCQmwnc8fAFKmrNmWd-2" value="Amazon" style="rounded=1;whiteSpace=wrap;html=1;fillColor=#fff2cc;strokeColor=#d6b656;" parent="1" vertex="1">
          <mxGeometry x="-620" y="525" width="80" height="20" as="geometry" />
        </mxCell>
        <mxCell id="VnbCQmwnc8fAFKmrNmWd-4" value="Bedrock" style="rounded=1;whiteSpace=wrap;html=1;fillColor=#ffcccc;strokeColor=#36393d;" parent="1" vertex="1">
          <mxGeometry x="-665" y="470" width="80" height="20" as="geometry" />
        </mxCell>
        <mxCell id="VnbCQmwnc8fAFKmrNmWd-14" value="AI21labs" style="rounded=1;whiteSpace=wrap;html=1;fillColor=#fff2cc;strokeColor=#d6b656;" parent="1" vertex="1">
          <mxGeometry x="-740" y="499" width="80" height="20" as="geometry" />
        </mxCell>
        <mxCell id="VnbCQmwnc8fAFKmrNmWd-28" style="edgeStyle=orthogonalEdgeStyle;rounded=0;orthogonalLoop=1;jettySize=auto;html=1;exitX=0;exitY=0.75;exitDx=0;exitDy=0;" parent="1" source="Nf7-oAOZD7IBiFHSosRC-51" target="VnbCQmwnc8fAFKmrNmWd-27" edge="1">
          <mxGeometry relative="1" as="geometry" />
        </mxCell>
        <mxCell id="xrwJvCJ6AqcdNxCiseaK-128" value="by" style="edgeLabel;html=1;align=center;verticalAlign=middle;resizable=0;points=[];" vertex="1" connectable="0" parent="VnbCQmwnc8fAFKmrNmWd-28">
          <mxGeometry x="-0.1377" y="-1" relative="1" as="geometry">
            <mxPoint as="offset" />
          </mxGeometry>
        </mxCell>
        <mxCell id="VnbCQmwnc8fAFKmrNmWd-27" value="stability.ai" style="rounded=1;whiteSpace=wrap;html=1;fillColor=#fff2cc;strokeColor=#d6b656;" parent="1" vertex="1">
          <mxGeometry x="-226" y="502" width="80" height="20" as="geometry" />
        </mxCell>
        <mxCell id="pncwD2yv2-toFsTXnSwA-7" value="WebLLM" style="rounded=1;whiteSpace=wrap;html=1;fillColor=#ffcccc;strokeColor=#36393d;" parent="1" vertex="1">
          <mxGeometry x="-688" y="593" width="60" height="20" as="geometry" />
        </mxCell>
        <mxCell id="pncwD2yv2-toFsTXnSwA-8" value="Vicuna-7b-delta-v0" style="rounded=1;whiteSpace=wrap;html=1;fillColor=#f8cecc;strokeColor=#b85450;" parent="1" vertex="1">
          <mxGeometry x="-908" y="511" width="80" height="29" as="geometry" />
        </mxCell>
        <mxCell id="pncwD2yv2-toFsTXnSwA-24" value="by" style="edgeStyle=orthogonalEdgeStyle;rounded=0;orthogonalLoop=1;jettySize=auto;html=1;exitX=0.14;exitY=1.1;exitDx=0;exitDy=0;exitPerimeter=0;" parent="1" source="pncwD2yv2-toFsTXnSwA-19" target="pncwD2yv2-toFsTXnSwA-21" edge="1">
          <mxGeometry relative="1" as="geometry" />
        </mxCell>
        <mxCell id="pncwD2yv2-toFsTXnSwA-26" value="by" style="edgeStyle=orthogonalEdgeStyle;rounded=0;orthogonalLoop=1;jettySize=auto;html=1;exitX=0.5;exitY=1;exitDx=0;exitDy=0;" parent="1" source="pncwD2yv2-toFsTXnSwA-19" target="pncwD2yv2-toFsTXnSwA-25" edge="1">
          <mxGeometry relative="1" as="geometry" />
        </mxCell>
        <mxCell id="xrwJvCJ6AqcdNxCiseaK-117" value="by" style="edgeStyle=orthogonalEdgeStyle;rounded=0;orthogonalLoop=1;jettySize=auto;html=1;" edge="1" parent="1" source="pncwD2yv2-toFsTXnSwA-19" target="Nf7-oAOZD7IBiFHSosRC-87">
          <mxGeometry relative="1" as="geometry" />
        </mxCell>
        <mxCell id="pncwD2yv2-toFsTXnSwA-19" value="open-assistant.io" style="rounded=1;whiteSpace=wrap;html=1;fillColor=#ffcccc;strokeColor=#36393d;" parent="1" vertex="1">
          <mxGeometry x="-1835" y="665.5" width="100" height="20" as="geometry" />
        </mxCell>
        <mxCell id="pncwD2yv2-toFsTXnSwA-21" value="Andreas Köpf" style="rounded=1;whiteSpace=wrap;html=1;fillColor=#ffff88;strokeColor=#36393d;" parent="1" vertex="1">
          <mxGeometry x="-1905" y="745.5" width="100" height="20" as="geometry" />
        </mxCell>
        <mxCell id="pncwD2yv2-toFsTXnSwA-25" value="Yannic Kilcher" style="rounded=1;whiteSpace=wrap;html=1;fillColor=#ffff88;strokeColor=#36393d;" parent="1" vertex="1">
          <mxGeometry x="-1775" y="745.5" width="100" height="20" as="geometry" />
        </mxCell>
        <mxCell id="xrwJvCJ6AqcdNxCiseaK-71" value="by" style="edgeStyle=orthogonalEdgeStyle;rounded=0;orthogonalLoop=1;jettySize=auto;html=1;entryX=0.5;entryY=0;entryDx=0;entryDy=0;" edge="1" parent="1" source="pncwD2yv2-toFsTXnSwA-30" target="Nf7-oAOZD7IBiFHSosRC-12">
          <mxGeometry relative="1" as="geometry" />
        </mxCell>
        <mxCell id="pncwD2yv2-toFsTXnSwA-30" value="Pythia-12B" style="rounded=1;whiteSpace=wrap;html=1;fillColor=#d5e8d4;strokeColor=#82b366;" parent="1" vertex="1">
          <mxGeometry x="-1800" y="466" width="80" height="20" as="geometry" />
        </mxCell>
        <mxCell id="xrwJvCJ6AqcdNxCiseaK-180" style="edgeStyle=orthogonalEdgeStyle;rounded=0;orthogonalLoop=1;jettySize=auto;html=1;entryX=0.5;entryY=0;entryDx=0;entryDy=0;" edge="1" parent="1" source="pncwD2yv2-toFsTXnSwA-35" target="pncwD2yv2-toFsTXnSwA-42">
          <mxGeometry relative="1" as="geometry" />
        </mxCell>
        <mxCell id="xrwJvCJ6AqcdNxCiseaK-181" value="released" style="edgeLabel;html=1;align=center;verticalAlign=middle;resizable=0;points=[];" vertex="1" connectable="0" parent="xrwJvCJ6AqcdNxCiseaK-180">
          <mxGeometry x="0.5907" y="-1" relative="1" as="geometry">
            <mxPoint as="offset" />
          </mxGeometry>
        </mxCell>
        <mxCell id="pncwD2yv2-toFsTXnSwA-35" value="Baize" style="rounded=1;whiteSpace=wrap;html=1;fillColor=#d5e8d4;strokeColor=#82b366;" parent="1" vertex="1">
          <mxGeometry x="630" y="210" width="41" height="25" as="geometry" />
        </mxCell>
        <mxCell id="pncwD2yv2-toFsTXnSwA-41" value="LoRA" style="rounded=1;whiteSpace=wrap;html=1;" parent="1" vertex="1">
          <mxGeometry x="465" y="220" width="60" height="20" as="geometry" />
        </mxCell>
        <mxCell id="pncwD2yv2-toFsTXnSwA-42" value="Baize-30B" style="rounded=1;whiteSpace=wrap;html=1;fillColor=#d5e8d4;strokeColor=#82b366;" parent="1" vertex="1">
          <mxGeometry x="700" y="302.5" width="41" height="25" as="geometry" />
        </mxCell>
        <mxCell id="xrwJvCJ6AqcdNxCiseaK-69" value="released" style="edgeStyle=orthogonalEdgeStyle;rounded=0;orthogonalLoop=1;jettySize=auto;html=1;entryX=0.5;entryY=0;entryDx=0;entryDy=0;" edge="1" parent="1" source="pncwD2yv2-toFsTXnSwA-46" target="pncwD2yv2-toFsTXnSwA-30">
          <mxGeometry relative="1" as="geometry" />
        </mxCell>
        <mxCell id="pncwD2yv2-toFsTXnSwA-46" value="Pythia" style="rounded=1;whiteSpace=wrap;html=1;fillColor=#d5e8d4;gradientColor=#97d077;strokeColor=#82b366;fontStyle=2" parent="1" vertex="1">
          <mxGeometry x="-1840" y="395" width="80" height="20" as="geometry" />
        </mxCell>
        <mxCell id="xrwJvCJ6AqcdNxCiseaK-119" style="edgeStyle=orthogonalEdgeStyle;rounded=0;orthogonalLoop=1;jettySize=auto;html=1;entryX=0.5;entryY=0;entryDx=0;entryDy=0;" edge="1" parent="1" source="pncwD2yv2-toFsTXnSwA-57" target="xrwJvCJ6AqcdNxCiseaK-118">
          <mxGeometry relative="1" as="geometry" />
        </mxCell>
        <mxCell id="xrwJvCJ6AqcdNxCiseaK-120" value="is a" style="edgeLabel;html=1;align=center;verticalAlign=middle;resizable=0;points=[];" vertex="1" connectable="0" parent="xrwJvCJ6AqcdNxCiseaK-119">
          <mxGeometry x="-0.0612" relative="1" as="geometry">
            <mxPoint as="offset" />
          </mxGeometry>
        </mxCell>
        <mxCell id="pncwD2yv2-toFsTXnSwA-57" value="AutoGPT" style="rounded=1;whiteSpace=wrap;html=1;fillColor=#ffcccc;strokeColor=#36393d;" parent="1" vertex="1">
          <mxGeometry x="-1590" y="521" width="60" height="20" as="geometry" />
        </mxCell>
        <object label="&lt;font color=&quot;#cccccc&quot;&gt;Version: %cmversion%&lt;/font&gt;" placeholders="1" cmversion="0.15" id="legend">
          <mxCell style="rounded=0;whiteSpace=wrap;html=1;strokeColor=#E6E6E6;verticalAlign=bottom;" parent="1" vertex="1">
            <mxGeometry x="-2030" y="20" width="170" height="260" as="geometry" />
          </mxCell>
        </object>
        <mxCell id="2W1-EBeXB4ZHRV_UkJeY-9" value="" style="edgeStyle=orthogonalEdgeStyle;rounded=0;orthogonalLoop=1;jettySize=auto;html=1;" parent="1" source="2W1-EBeXB4ZHRV_UkJeY-3" target="2W1-EBeXB4ZHRV_UkJeY-8" edge="1">
          <mxGeometry relative="1" as="geometry" />
        </mxCell>
        <mxCell id="2W1-EBeXB4ZHRV_UkJeY-10" value="by" style="edgeLabel;html=1;align=center;verticalAlign=middle;resizable=0;points=[];" parent="2W1-EBeXB4ZHRV_UkJeY-9" vertex="1" connectable="0">
          <mxGeometry x="0.025" y="-2" relative="1" as="geometry">
            <mxPoint y="1" as="offset" />
          </mxGeometry>
        </mxCell>
        <mxCell id="2W1-EBeXB4ZHRV_UkJeY-3" value="RedPajama" style="rounded=1;whiteSpace=wrap;html=1;fillColor=#e1d5e7;strokeColor=#9673a6;" parent="1" vertex="1">
          <mxGeometry x="-720" y="693" width="80" height="20" as="geometry" />
        </mxCell>
        <mxCell id="2W1-EBeXB4ZHRV_UkJeY-8" value="Together" style="rounded=1;whiteSpace=wrap;html=1;fillColor=#fff2cc;strokeColor=#d6b656;" parent="1" vertex="1">
          <mxGeometry x="-760" y="792" width="80" height="20" as="geometry" />
        </mxCell>
        <mxCell id="g8Lvn-XysmZS2MQQVdfu-9" value="" style="edgeStyle=orthogonalEdgeStyle;rounded=0;orthogonalLoop=1;jettySize=auto;html=1;" parent="1" source="g8Lvn-XysmZS2MQQVdfu-2" target="g8Lvn-XysmZS2MQQVdfu-8" edge="1">
          <mxGeometry relative="1" as="geometry" />
        </mxCell>
        <mxCell id="g8Lvn-XysmZS2MQQVdfu-10" value="trained on" style="edgeLabel;html=1;align=center;verticalAlign=middle;resizable=0;points=[];" parent="g8Lvn-XysmZS2MQQVdfu-9" vertex="1" connectable="0">
          <mxGeometry x="0.08" relative="1" as="geometry">
            <mxPoint x="57" y="10" as="offset" />
          </mxGeometry>
        </mxCell>
        <mxCell id="xrwJvCJ6AqcdNxCiseaK-72" value="by" style="edgeStyle=orthogonalEdgeStyle;rounded=0;orthogonalLoop=1;jettySize=auto;html=1;" edge="1" parent="1" source="g8Lvn-XysmZS2MQQVdfu-2" target="Nf7-oAOZD7IBiFHSosRC-12">
          <mxGeometry relative="1" as="geometry">
            <Array as="points">
              <mxPoint x="-1920" y="510" />
            </Array>
          </mxGeometry>
        </mxCell>
        <mxCell id="g8Lvn-XysmZS2MQQVdfu-2" value="GPT-J" style="rounded=1;whiteSpace=wrap;html=1;fillColor=#d5e8d4;gradientColor=#97d077;strokeColor=#82b366;fontStyle=2" parent="1" vertex="1">
          <mxGeometry x="-1960" y="395" width="80" height="20" as="geometry" />
        </mxCell>
        <mxCell id="xrwJvCJ6AqcdNxCiseaK-75" value="based on" style="edgeStyle=orthogonalEdgeStyle;rounded=0;orthogonalLoop=1;jettySize=auto;html=1;entryX=0.5;entryY=1;entryDx=0;entryDy=0;" edge="1" parent="1" source="g8Lvn-XysmZS2MQQVdfu-6" target="g8Lvn-XysmZS2MQQVdfu-2">
          <mxGeometry relative="1" as="geometry">
            <Array as="points">
              <mxPoint x="-1990" y="460" />
              <mxPoint x="-1940" y="460" />
              <mxPoint x="-1940" y="430" />
              <mxPoint x="-1920" y="430" />
            </Array>
          </mxGeometry>
        </mxCell>
        <UserObject label="GPT-J 6B" link="https://huggingface.co/EleutherAI/gpt-j-6b" linkTarget="_blank" id="g8Lvn-XysmZS2MQQVdfu-6">
          <mxCell style="rounded=1;whiteSpace=wrap;html=1;fillColor=#d5e8d4;strokeColor=#82b366;" parent="1" vertex="1">
            <mxGeometry x="-2030" y="541" width="80" height="20" as="geometry" />
          </mxCell>
        </UserObject>
        <mxCell id="xrwJvCJ6AqcdNxCiseaK-150" value="provided by" style="edgeStyle=orthogonalEdgeStyle;rounded=0;orthogonalLoop=1;jettySize=auto;html=1;entryX=0.5;entryY=0;entryDx=0;entryDy=0;" edge="1" parent="1" source="g8Lvn-XysmZS2MQQVdfu-8" target="Nf7-oAOZD7IBiFHSosRC-83">
          <mxGeometry relative="1" as="geometry" />
        </mxCell>
        <mxCell id="g8Lvn-XysmZS2MQQVdfu-8" value="Pile" style="rounded=1;whiteSpace=wrap;html=1;fillColor=#e1d5e7;strokeColor=#9673a6;" parent="1" vertex="1">
          <mxGeometry x="-2130" y="491" width="80" height="20" as="geometry" />
        </mxCell>
        <mxCell id="xrwJvCJ6AqcdNxCiseaK-33" style="edgeStyle=orthogonalEdgeStyle;rounded=0;orthogonalLoop=1;jettySize=auto;html=1;exitX=0.5;exitY=1;exitDx=0;exitDy=0;" edge="1" parent="1" source="ZmSJYW621lh4pWwgXG7s-2" target="Nf7-oAOZD7IBiFHSosRC-75">
          <mxGeometry relative="1" as="geometry">
            <Array as="points">
              <mxPoint x="-959" y="50" />
              <mxPoint x="-1090" y="50" />
            </Array>
          </mxGeometry>
        </mxCell>
        <mxCell id="xrwJvCJ6AqcdNxCiseaK-121" value="can be based on" style="edgeLabel;html=1;align=center;verticalAlign=middle;resizable=0;points=[];" vertex="1" connectable="0" parent="xrwJvCJ6AqcdNxCiseaK-33">
          <mxGeometry x="0.493" y="-2" relative="1" as="geometry">
            <mxPoint x="43" y="-8" as="offset" />
          </mxGeometry>
        </mxCell>
        <mxCell id="xrwJvCJ6AqcdNxCiseaK-57" style="edgeStyle=orthogonalEdgeStyle;rounded=0;orthogonalLoop=1;jettySize=auto;html=1;entryX=0.5;entryY=0;entryDx=0;entryDy=0;" edge="1" parent="1" source="ZmSJYW621lh4pWwgXG7s-2" target="rc8IcvqTiUcz9mYL3Jec-7">
          <mxGeometry relative="1" as="geometry">
            <Array as="points">
              <mxPoint x="-959" y="140" />
              <mxPoint x="-1560" y="140" />
            </Array>
          </mxGeometry>
        </mxCell>
        <mxCell id="xrwJvCJ6AqcdNxCiseaK-103" style="edgeStyle=orthogonalEdgeStyle;rounded=0;orthogonalLoop=1;jettySize=auto;html=1;entryX=0.5;entryY=0;entryDx=0;entryDy=0;exitX=0.5;exitY=1;exitDx=0;exitDy=0;" edge="1" parent="1" source="ZmSJYW621lh4pWwgXG7s-2" target="Nf7-oAOZD7IBiFHSosRC-48">
          <mxGeometry relative="1" as="geometry">
            <mxPoint x="-930" y="180" as="sourcePoint" />
            <Array as="points">
              <mxPoint x="-959" y="140" />
              <mxPoint x="-184" y="140" />
            </Array>
          </mxGeometry>
        </mxCell>
        <mxCell id="xrwJvCJ6AqcdNxCiseaK-157" style="edgeStyle=orthogonalEdgeStyle;rounded=0;orthogonalLoop=1;jettySize=auto;html=1;entryX=0.5;entryY=0;entryDx=0;entryDy=0;" edge="1" parent="1" source="ZmSJYW621lh4pWwgXG7s-2" target="Anla5Jb9fiCcCMFD98uM-4">
          <mxGeometry relative="1" as="geometry">
            <Array as="points">
              <mxPoint x="-959" y="140" />
              <mxPoint x="304" y="140" />
            </Array>
          </mxGeometry>
        </mxCell>
        <mxCell id="xrwJvCJ6AqcdNxCiseaK-185" style="edgeStyle=orthogonalEdgeStyle;rounded=0;orthogonalLoop=1;jettySize=auto;html=1;entryX=0.5;entryY=0;entryDx=0;entryDy=0;" edge="1" parent="1" source="ZmSJYW621lh4pWwgXG7s-2" target="Nf7-oAOZD7IBiFHSosRC-38">
          <mxGeometry relative="1" as="geometry">
            <Array as="points">
              <mxPoint x="-959" y="50" />
              <mxPoint x="550" y="50" />
            </Array>
          </mxGeometry>
        </mxCell>
        <mxCell id="xrwJvCJ6AqcdNxCiseaK-186" value="can use" style="edgeLabel;html=1;align=center;verticalAlign=middle;resizable=0;points=[];" vertex="1" connectable="0" parent="xrwJvCJ6AqcdNxCiseaK-185">
          <mxGeometry x="-0.6085" y="2" relative="1" as="geometry">
            <mxPoint as="offset" />
          </mxGeometry>
        </mxCell>
        <mxCell id="ZmSJYW621lh4pWwgXG7s-2" value="Large Language Models" style="rounded=1;whiteSpace=wrap;html=1;fillColor=#f5f5f5;fontColor=#333333;strokeColor=#666666;" parent="1" vertex="1">
          <mxGeometry x="-1010" y="-60" width="102" height="30" as="geometry" />
        </mxCell>
        <mxCell id="muqpwIbcx8pszHu83CzP-1" value="Organizations" style="rounded=1;whiteSpace=wrap;html=1;fillColor=#fff2cc;strokeColor=#d6b656;" parent="1" vertex="1">
          <mxGeometry x="-1990" y="174" width="100" height="28" as="geometry" />
        </mxCell>
        <mxCell id="xrwJvCJ6AqcdNxCiseaK-125" style="edgeStyle=orthogonalEdgeStyle;rounded=0;orthogonalLoop=1;jettySize=auto;html=1;" edge="1" parent="1" source="muqpwIbcx8pszHu83CzP-2" target="Nf7-oAOZD7IBiFHSosRC-48">
          <mxGeometry relative="1" as="geometry">
            <Array as="points">
              <mxPoint x="-173" y="322" />
              <mxPoint x="-184" y="322" />
            </Array>
          </mxGeometry>
        </mxCell>
        <mxCell id="xrwJvCJ6AqcdNxCiseaK-126" value="is a" style="edgeLabel;html=1;align=center;verticalAlign=middle;resizable=0;points=[];" vertex="1" connectable="0" parent="xrwJvCJ6AqcdNxCiseaK-125">
          <mxGeometry x="-0.2344" relative="1" as="geometry">
            <mxPoint x="-23" y="-10" as="offset" />
          </mxGeometry>
        </mxCell>
        <mxCell id="xrwJvCJ6AqcdNxCiseaK-127" value="used by" style="edgeStyle=orthogonalEdgeStyle;rounded=0;orthogonalLoop=1;jettySize=auto;html=1;" edge="1" parent="1" source="muqpwIbcx8pszHu83CzP-2" target="Nf7-oAOZD7IBiFHSosRC-51">
          <mxGeometry relative="1" as="geometry" />
        </mxCell>
        <mxCell id="muqpwIbcx8pszHu83CzP-2" value="Latent Difussion&lt;br&gt;Model" style="rounded=1;whiteSpace=wrap;html=1;fillColor=#d5e8d4;strokeColor=#82b366;gradientColor=#97d077;" parent="1" vertex="1">
          <mxGeometry x="-218" y="342.5" width="90" height="29.5" as="geometry" />
        </mxCell>
        <mxCell id="muqpwIbcx8pszHu83CzP-4" value="People" style="rounded=1;whiteSpace=wrap;html=1;fillColor=#ffff88;strokeColor=#36393d;" parent="1" vertex="1">
          <mxGeometry x="-1990" y="202" width="100" height="19" as="geometry" />
        </mxCell>
        <UserObject label="Bark" link="https://github.com/suno-ai/bark" id="Anla5Jb9fiCcCMFD98uM-1">
          <mxCell style="rounded=1;whiteSpace=wrap;html=1;fillColor=#d5e8d4;strokeColor=#82b366;gradientColor=#97d077;" parent="1" vertex="1">
            <mxGeometry x="220" y="352" width="80" height="20" as="geometry" />
          </mxCell>
        </UserObject>
        <mxCell id="Anla5Jb9fiCcCMFD98uM-6" value="Suno.ai" style="rounded=1;whiteSpace=wrap;html=1;fillColor=#fff2cc;strokeColor=#d6b656;" parent="1" vertex="1">
          <mxGeometry x="330" y="352" width="60" height="21.5" as="geometry" />
        </mxCell>
        <mxCell id="xrwJvCJ6AqcdNxCiseaK-1" value="Dataset" style="rounded=1;whiteSpace=wrap;html=1;fillColor=#e1d5e7;strokeColor=#9673a6;" vertex="1" parent="1">
          <mxGeometry x="-1990" y="221" width="100" height="19" as="geometry" />
        </mxCell>
        <mxCell id="xrwJvCJ6AqcdNxCiseaK-32" style="edgeStyle=orthogonalEdgeStyle;rounded=0;orthogonalLoop=1;jettySize=auto;html=1;entryX=0.5;entryY=0;entryDx=0;entryDy=0;" edge="1" parent="1" source="Anla5Jb9fiCcCMFD98uM-4" target="Anla5Jb9fiCcCMFD98uM-1">
          <mxGeometry relative="1" as="geometry">
            <Array as="points">
              <mxPoint x="300" y="332" />
              <mxPoint x="260" y="332" />
            </Array>
          </mxGeometry>
        </mxCell>
        <mxCell id="xrwJvCJ6AqcdNxCiseaK-144" value="used by" style="edgeLabel;html=1;align=center;verticalAlign=middle;resizable=0;points=[];" vertex="1" connectable="0" parent="xrwJvCJ6AqcdNxCiseaK-32">
          <mxGeometry x="0.4034" y="1" relative="1" as="geometry">
            <mxPoint as="offset" />
          </mxGeometry>
        </mxCell>
        <mxCell id="Anla5Jb9fiCcCMFD98uM-4" value="text2audio&lt;br&gt;model" style="rounded=1;whiteSpace=wrap;html=1;fillColor=#f5f5f5;strokeColor=#666666;fontColor=#333333;" parent="1" vertex="1">
          <mxGeometry x="259" y="259.5" width="90" height="31" as="geometry" />
        </mxCell>
        <mxCell id="xrwJvCJ6AqcdNxCiseaK-85" style="edgeStyle=orthogonalEdgeStyle;rounded=0;orthogonalLoop=1;jettySize=auto;html=1;entryX=0.5;entryY=0;entryDx=0;entryDy=0;" edge="1" parent="1" source="Nf7-oAOZD7IBiFHSosRC-17" target="xrwJvCJ6AqcdNxCiseaK-47">
          <mxGeometry relative="1" as="geometry">
            <Array as="points">
              <mxPoint x="-1650" y="430" />
            </Array>
          </mxGeometry>
        </mxCell>
        <mxCell id="xrwJvCJ6AqcdNxCiseaK-89" value="used by" style="edgeStyle=orthogonalEdgeStyle;rounded=0;orthogonalLoop=1;jettySize=auto;html=1;entryX=0.5;entryY=0;entryDx=0;entryDy=0;" edge="1" parent="1" target="pncwD2yv2-toFsTXnSwA-57">
          <mxGeometry relative="1" as="geometry">
            <mxPoint x="-1550" y="430" as="sourcePoint" />
            <Array as="points">
              <mxPoint x="-1560" y="440" />
              <mxPoint x="-1560" y="440" />
            </Array>
          </mxGeometry>
        </mxCell>
        <mxCell id="xrwJvCJ6AqcdNxCiseaK-97" style="edgeStyle=orthogonalEdgeStyle;rounded=0;orthogonalLoop=1;jettySize=auto;html=1;entryX=0;entryY=0.5;entryDx=0;entryDy=0;" edge="1" parent="1" source="Nf7-oAOZD7IBiFHSosRC-17" target="Nf7-oAOZD7IBiFHSosRC-8">
          <mxGeometry relative="1" as="geometry">
            <Array as="points">
              <mxPoint x="-1500" y="391" />
              <mxPoint x="-1500" y="530" />
            </Array>
          </mxGeometry>
        </mxCell>
        <mxCell id="xrwJvCJ6AqcdNxCiseaK-98" value="by" style="edgeLabel;html=1;align=center;verticalAlign=middle;resizable=0;points=[];" vertex="1" connectable="0" parent="xrwJvCJ6AqcdNxCiseaK-97">
          <mxGeometry x="0.2978" y="-1" relative="1" as="geometry">
            <mxPoint y="1" as="offset" />
          </mxGeometry>
        </mxCell>
        <mxCell id="Nf7-oAOZD7IBiFHSosRC-17" value="GPT4" style="rounded=1;whiteSpace=wrap;html=1;fillColor=#d5e8d4;strokeColor=#82b366;gradientColor=#97d077;fontStyle=1" parent="1" vertex="1">
          <mxGeometry x="-1560" y="380.5" width="50" height="20" as="geometry" />
        </mxCell>
        <mxCell id="xrwJvCJ6AqcdNxCiseaK-136" style="edgeStyle=orthogonalEdgeStyle;rounded=0;orthogonalLoop=1;jettySize=auto;html=1;entryX=0.5;entryY=1;entryDx=0;entryDy=0;" edge="1" parent="1" source="xrwJvCJ6AqcdNxCiseaK-39" target="rc8IcvqTiUcz9mYL3Jec-7">
          <mxGeometry relative="1" as="geometry">
            <Array as="points">
              <mxPoint x="-750" y="330" />
              <mxPoint x="-1560" y="330" />
            </Array>
          </mxGeometry>
        </mxCell>
        <mxCell id="xrwJvCJ6AqcdNxCiseaK-138" style="edgeStyle=orthogonalEdgeStyle;rounded=0;orthogonalLoop=1;jettySize=auto;html=1;entryX=0.5;entryY=0;entryDx=0;entryDy=0;exitX=0.5;exitY=1;exitDx=0;exitDy=0;" edge="1" parent="1" source="xrwJvCJ6AqcdNxCiseaK-39" target="VnbCQmwnc8fAFKmrNmWd-14">
          <mxGeometry relative="1" as="geometry">
            <mxPoint x="-758" y="412" as="sourcePoint" />
          </mxGeometry>
        </mxCell>
        <mxCell id="xrwJvCJ6AqcdNxCiseaK-139" value="by" style="edgeLabel;html=1;align=center;verticalAlign=middle;resizable=0;points=[];" vertex="1" connectable="0" parent="xrwJvCJ6AqcdNxCiseaK-138">
          <mxGeometry x="0.2069" y="-2" relative="1" as="geometry">
            <mxPoint x="-16" as="offset" />
          </mxGeometry>
        </mxCell>
        <mxCell id="xrwJvCJ6AqcdNxCiseaK-39" value="Jurassic-2" style="rounded=1;whiteSpace=wrap;html=1;fillColor=#d5e8d4;gradientColor=#97d077;strokeColor=#82b366;fontStyle=2" vertex="1" parent="1">
          <mxGeometry x="-790" y="365" width="80" height="20" as="geometry" />
        </mxCell>
        <mxCell id="xrwJvCJ6AqcdNxCiseaK-137" style="edgeStyle=orthogonalEdgeStyle;rounded=0;orthogonalLoop=1;jettySize=auto;html=1;" edge="1" parent="1" source="xrwJvCJ6AqcdNxCiseaK-40" target="rc8IcvqTiUcz9mYL3Jec-7">
          <mxGeometry relative="1" as="geometry">
            <Array as="points">
              <mxPoint x="-630" y="330" />
              <mxPoint x="-1560" y="330" />
            </Array>
          </mxGeometry>
        </mxCell>
        <mxCell id="xrwJvCJ6AqcdNxCiseaK-145" value="by" style="edgeStyle=orthogonalEdgeStyle;rounded=0;orthogonalLoop=1;jettySize=auto;html=1;entryX=0.5;entryY=0;entryDx=0;entryDy=0;" edge="1" parent="1" source="xrwJvCJ6AqcdNxCiseaK-40" target="VnbCQmwnc8fAFKmrNmWd-4">
          <mxGeometry relative="1" as="geometry" />
        </mxCell>
        <mxCell id="xrwJvCJ6AqcdNxCiseaK-40" value="Titan" style="rounded=1;whiteSpace=wrap;html=1;fillColor=#d5e8d4;gradientColor=#97d077;strokeColor=#82b366;fontStyle=2" vertex="1" parent="1">
          <mxGeometry x="-670" y="365" width="80" height="20" as="geometry" />
        </mxCell>
        <mxCell id="xrwJvCJ6AqcdNxCiseaK-47" value="ChatGPT" style="rounded=1;whiteSpace=wrap;html=1;fillColor=#ffcccc;strokeColor=#36393d;" vertex="1" parent="1">
          <mxGeometry x="-1680" y="465" width="60" height="20" as="geometry" />
        </mxCell>
        <mxCell id="xrwJvCJ6AqcdNxCiseaK-88" value="shared transcripts" style="edgeStyle=orthogonalEdgeStyle;rounded=0;orthogonalLoop=1;jettySize=auto;html=1;entryX=0.5;entryY=1;entryDx=0;entryDy=0;" edge="1" parent="1" source="xrwJvCJ6AqcdNxCiseaK-48" target="xrwJvCJ6AqcdNxCiseaK-47">
          <mxGeometry relative="1" as="geometry" />
        </mxCell>
        <mxCell id="xrwJvCJ6AqcdNxCiseaK-48" value="ShareGPT" style="rounded=1;whiteSpace=wrap;html=1;fillColor=#ffcccc;strokeColor=#36393d;" vertex="1" parent="1">
          <mxGeometry x="-1700" y="540" width="60" height="20" as="geometry" />
        </mxCell>
        <mxCell id="xrwJvCJ6AqcdNxCiseaK-58" value="&lt;b&gt;Fine-tuned model&lt;/b&gt;" style="rounded=1;whiteSpace=wrap;html=1;fillColor=#d5e8d4;gradientColor=#97d077;strokeColor=#82b366;" vertex="1" parent="1">
          <mxGeometry x="-1992.75" y="60" width="94.5" height="27.5" as="geometry" />
        </mxCell>
        <mxCell id="xrwJvCJ6AqcdNxCiseaK-61" value="&lt;b&gt;Free tool&lt;/b&gt;" style="rounded=1;whiteSpace=wrap;html=1;fillColor=#f8cecc;strokeColor=#b85450;" vertex="1" parent="1">
          <mxGeometry x="-1990" y="150" width="100" height="22.5" as="geometry" />
        </mxCell>
        <mxCell id="xrwJvCJ6AqcdNxCiseaK-62" value="&lt;span&gt;Tool&lt;/span&gt;" style="rounded=1;whiteSpace=wrap;html=1;fillColor=#f8cecc;strokeColor=#b85450;fontStyle=0" vertex="1" parent="1">
          <mxGeometry x="-1990" y="120" width="100" height="25" as="geometry" />
        </mxCell>
        <mxCell id="xrwJvCJ6AqcdNxCiseaK-104" value="used by" style="edgeStyle=orthogonalEdgeStyle;rounded=0;orthogonalLoop=1;jettySize=auto;html=1;entryX=0.5;entryY=0;entryDx=0;entryDy=0;" edge="1" parent="1" source="xrwJvCJ6AqcdNxCiseaK-63" target="Nf7-oAOZD7IBiFHSosRC-10">
          <mxGeometry relative="1" as="geometry" />
        </mxCell>
        <mxCell id="xrwJvCJ6AqcdNxCiseaK-162" style="edgeStyle=orthogonalEdgeStyle;rounded=0;orthogonalLoop=1;jettySize=auto;html=1;entryX=0.5;entryY=1;entryDx=0;entryDy=0;" edge="1" parent="1" source="xrwJvCJ6AqcdNxCiseaK-63" target="Nf7-oAOZD7IBiFHSosRC-48">
          <mxGeometry relative="1" as="geometry">
            <Array as="points">
              <mxPoint x="-324" y="322" />
              <mxPoint x="-184" y="322" />
            </Array>
          </mxGeometry>
        </mxCell>
        <mxCell id="xrwJvCJ6AqcdNxCiseaK-63" value="DALL-E 2" style="rounded=1;whiteSpace=wrap;html=1;fillColor=#d5e8d4;gradientColor=#97d077;strokeColor=#82b366;" vertex="1" parent="1">
          <mxGeometry x="-364" y="347.5" width="80" height="20" as="geometry" />
        </mxCell>
        <mxCell id="xrwJvCJ6AqcdNxCiseaK-86" value="is a" style="text;html=1;align=center;verticalAlign=middle;resizable=0;points=[];autosize=1;strokeColor=none;fillColor=none;" vertex="1" parent="1">
          <mxGeometry x="-1560" y="300" width="40" height="30" as="geometry" />
        </mxCell>
        <mxCell id="xrwJvCJ6AqcdNxCiseaK-105" value="Foundation model" style="rounded=1;whiteSpace=wrap;html=1;fillColor=#d5e8d4;gradientColor=#97d077;strokeColor=#82b366;fontStyle=2" vertex="1" parent="1">
          <mxGeometry x="-1992.75" y="90" width="95.5" height="27.5" as="geometry" />
        </mxCell>
        <mxCell id="xrwJvCJ6AqcdNxCiseaK-118" value="Autonomous&lt;br&gt;System" style="rounded=1;whiteSpace=wrap;html=1;" vertex="1" parent="1">
          <mxGeometry x="-1600" y="590" width="80" height="31" as="geometry" />
        </mxCell>
        <mxCell id="xrwJvCJ6AqcdNxCiseaK-158" value="can be" style="text;html=1;align=center;verticalAlign=middle;resizable=0;points=[];autosize=1;strokeColor=none;fillColor=none;" vertex="1" parent="1">
          <mxGeometry x="-960" y="110" width="60" height="30" as="geometry" />
        </mxCell>
      </root>
    </mxGraphModel>
  </diagram>
</mxfile>
